# xmcd
#
# Track frame offsets:
#	150
#	18712
#	36793
#
# Disc length: 862 seconds
#
# Revision: 0
# Processed by: cddbd v1.5.1PL0 Copyright (c) Steve Scherf et al.
# Submitted via: audiograbber 1.83.01
#
DISCID=1e035c03
DTITLE=Ostbahn Kurti - Zuckagoschal (Singel)
DYEAR=1992
DGENRE=Rock and Roll
TTITLE0=Zuckagoschal
TTITLE1=Wo Bleib I? ("Ernte 72"-Version, live)
TTITLE2=Tequila Sunrise (live)
EXTD=
EXTT0=
EXTT1=LIVE UND "AUS'GSTECKT" am 25. November 1991 im Kulturgelände "Nonntal" - 
EXTT1=Salzburg
EXTT2=LIVE UND "AUS'GSTECKT" am 25. November 1991 im Kulturgelände "Nonntal" - 
EXTT2=Salzburg
PLAYORDER=
